<svg width="14" height="15" viewBox="0 0 14 15" fill="none" xmlns="http://www.w3.org/2000/svg">
<path d="M13.5244 13.342C13.6951 13.5298 13.6951 13.7176 13.5244 13.9054C13.439 13.9908 13.3451 14.0335 13.2427 14.0335C13.1403 14.0335 13.0378 13.9908 12.9354 13.9054L9.29903 10.2947C8.34299 11.1141 7.19062 11.5409 5.84192 11.5751C4.33957 11.5409 3.0933 11.0202 2.10312 10.013C1.09586 9.00571 0.57516 7.75091 0.541016 6.24856C0.57516 4.74621 1.08732 3.49141 2.07751 2.48415C3.08477 1.47689 4.33957 0.956194 5.84192 0.92205C7.34427 0.956194 8.59907 1.47689 9.60632 2.48415C10.6136 3.49141 11.1343 4.74621 11.1684 6.24856C11.1514 7.59726 10.7331 8.74963 9.91362 9.70567L13.5244 13.342ZM5.86752 10.7556C7.14794 10.7215 8.20641 10.2861 9.04294 9.44959C9.89655 8.59598 10.3404 7.52897 10.3746 6.24856C10.3404 4.96815 9.90509 3.90114 9.06855 3.04753C8.21494 2.211 7.14794 1.77566 5.86752 1.74151C4.58711 1.77566 3.5201 2.21953 2.6665 3.07314C1.82996 3.90968 1.39462 4.96815 1.36048 6.24856C1.39462 7.52897 1.82996 8.58744 2.6665 9.42398C3.5201 10.2776 4.58711 10.7215 5.86752 10.7556Z" fill="#B0B0B0"/>
</svg>
